<?xml version="1.0" standalone="no"?>
<!DOCTYPE svg PUBLIC "-//W3C//DTD SVG 1.1//EN"
"http://www.w3.org/Graphics/SVG/1.1/DTD/svg11.dtd">

<svg width="543" height="549" view_box="0 0 543 549"
xmlns="http://www.w3.org/2000/svg"
xmlns:link="http://www.w3.org/1999/xlink">\n\n<desc>Généré par Mocodo 2.3.7 le Thu, 05 May 2022 06:35:00</desc>

<rect id="frame" x="0" y="0" width="543" height="549" fill="#ffffff" stroke="none" stroke-width="0"/>

<!-- Association characterizes -->
<line x1="146" y1="77" x2="254" y2="195" stroke="#d6604d" stroke-width="2"/>
<text x="194" y="122.610440366" fill="#4d4d4d" font-family="Verdana" font-size="12">1,1</text>
<line x1="254" y1="355" x2="254" y2="195" stroke="#d6604d" stroke-width="2"/>
<text x="259.0" y="237" fill="#4d4d4d" font-family="Verdana" font-size="12">0,N</text>
<g id="association-characterizes">
	<path d="M 288 170 a 14 14 90 0 1 14 14 V 195 h -96 V 184 a 14 14 90 0 1 14 -14" fill="#f4a582" stroke="#f4a582" stroke-width="0"/>
	<path d="M 302 195.0 v 11 a 14 14 90 0 1 -14 14 H 220 a 14 14 90 0 1 -14 -14 V 195.0 H 96" fill="#fddbc7" stroke="#fddbc7" stroke-width="0"/>
	<rect x="206" y="170" width="96" height="50" fill="none" rx="14" stroke="#d6604d" stroke-width="2"/>
	<line x1="206" y1="195" x2="302" y2="195" stroke="#d6604d" stroke-width="1"/>
	<text x="213" y="187.7" fill="#000000" font-family="Verdana" font-size="12">characterizes</text>
</g>

<!-- Association Create -->
<line x1="386" y1="77" x2="254" y2="77" stroke="#d6604d" stroke-width="2"/>
<text x="322" y="94.0" fill="#4d4d4d" font-family="Verdana" font-size="12">0,N</text>
<line x1="146" y1="77" x2="254" y2="77" stroke="#d6604d" stroke-width="2"/>
<text x="194" y="69.0" fill="#4d4d4d" font-family="Verdana" font-size="12">1,1</text>
<g id="association-Create">
	<path d="M 268 52 a 14 14 90 0 1 14 14 V 77 h -56 V 66 a 14 14 90 0 1 14 -14" fill="#f4a582" stroke="#f4a582" stroke-width="0"/>
	<path d="M 282 77.0 v 11 a 14 14 90 0 1 -14 14 H 240 a 14 14 90 0 1 -14 -14 V 77.0 H 56" fill="#fddbc7" stroke="#fddbc7" stroke-width="0"/>
	<rect x="226" y="52" width="56" height="50" fill="none" rx="14" stroke="#d6604d" stroke-width="2"/>
	<line x1="226" y1="77" x2="282" y2="77" stroke="#d6604d" stroke-width="1"/>
	<text x="233" y="69.7" fill="#000000" font-family="Verdana" font-size="12">Create</text>
</g>

<!-- Association Report2 -->
<line x1="254" y1="355" x2="146" y2="195" stroke="#d6604d" stroke-width="2"/>
<text x="173" y="286.833756417" fill="#4d4d4d" font-family="Verdana" font-size="12">0,N</text>
<line x1="43" y1="195" x2="146" y2="195" stroke="#d6604d" stroke-width="2"/>
<text x="82" y="212.0" fill="#4d4d4d" font-family="Verdana" font-size="12">1,1</text>
<g id="association-Report2">
	<path d="M 160 170 a 14 14 90 0 1 14 14 V 195 h -56 V 184 a 14 14 90 0 1 14 -14" fill="#f4a582" stroke="#f4a582" stroke-width="0"/>
	<path d="M 174 195.0 v 11 a 14 14 90 0 1 -14 14 H 132 a 14 14 90 0 1 -14 -14 V 195.0 H 56" fill="#fddbc7" stroke="#fddbc7" stroke-width="0"/>
	<rect x="118" y="170" width="56" height="50" fill="none" rx="14" stroke="#d6604d" stroke-width="2"/>
	<line x1="118" y1="195" x2="174" y2="195" stroke="#d6604d" stroke-width="1"/>
	<text x="125" y="187.7" fill="#000000" font-family="Verdana" font-size="12">Report</text>
</g>

<!-- Association Belongs -->
<line x1="499" y1="355" x2="386" y2="355" stroke="#d6604d" stroke-width="2"/>
<text x="445" y="372.0" fill="#4d4d4d" font-family="Verdana" font-size="12">0,N</text>
<line x1="254" y1="355" x2="386" y2="355" stroke="#d6604d" stroke-width="2"/>
<text x="313" y="372.0" fill="#4d4d4d" font-family="Verdana" font-size="12">1,N</text>
<g id="association-Belongs">
	<path d="M 403 330 a 14 14 90 0 1 14 14 V 355 h -62 V 344 a 14 14 90 0 1 14 -14" fill="#f4a582" stroke="#f4a582" stroke-width="0"/>
	<path d="M 417 355.0 v 11 a 14 14 90 0 1 -14 14 H 369 a 14 14 90 0 1 -14 -14 V 355.0 H 62" fill="#fddbc7" stroke="#fddbc7" stroke-width="0"/>
	<rect x="355" y="330" width="62" height="50" fill="none" rx="14" stroke="#d6604d" stroke-width="2"/>
	<line x1="355" y1="355" x2="417" y2="355" stroke="#d6604d" stroke-width="1"/>
	<text x="362" y="347.7" fill="#000000" font-family="Verdana" font-size="12">Belongs</text>
</g>

<!-- Association Recommanded -->
<line x1="386" y1="77" x2="386" y2="195" stroke="#d6604d" stroke-width="2"/>
<text x="391.0" y="162" fill="#4d4d4d" font-family="Verdana" font-size="12">0,N</text>
<line x1="254" y1="355" x2="386" y2="195" stroke="#d6604d" stroke-width="2"/>
<text x="313" y="300.428971125" fill="#4d4d4d" font-family="Verdana" font-size="12">1,1</text>
<g id="association-Recommanded">
	<path d="M 424 170 a 14 14 90 0 1 14 14 V 195 h -104 V 184 a 14 14 90 0 1 14 -14" fill="#f4a582" stroke="#f4a582" stroke-width="0"/>
	<path d="M 438 195.0 v 11 a 14 14 90 0 1 -14 14 H 348 a 14 14 90 0 1 -14 -14 V 195.0 H 104" fill="#fddbc7" stroke="#fddbc7" stroke-width="0"/>
	<rect x="334" y="170" width="104" height="50" fill="none" rx="14" stroke="#d6604d" stroke-width="2"/>
	<line x1="334" y1="195" x2="438" y2="195" stroke="#d6604d" stroke-width="1"/>
	<text x="341" y="187.7" fill="#000000" font-family="Verdana" font-size="12">Recommanded</text>
</g>

<!-- Association In -->
<line x1="43" y1="355" x2="146" y2="355" stroke="#d6604d" stroke-width="2"/>
<text x="79" y="372.0" fill="#4d4d4d" font-family="Verdana" font-size="12">1,N</text>
<line x1="254" y1="355" x2="146" y2="355" stroke="#d6604d" stroke-width="2"/>
<text x="174" y="372.0" fill="#4d4d4d" font-family="Verdana" font-size="12">1,1</text>
<g id="association-In">
	<path d="M 146 330 a 14 14 90 0 1 14 14 V 355 h -28 V 344 a 14 14 90 0 1 14 -14" fill="#f4a582" stroke="#f4a582" stroke-width="0"/>
	<path d="M 160 355.0 v 11 a 14 14 90 0 1 -14 14 H 146 a 14 14 90 0 1 -14 -14 V 355.0 H 28" fill="#fddbc7" stroke="#fddbc7" stroke-width="0"/>
	<rect x="132" y="330" width="28" height="50" fill="none" rx="14" stroke="#d6604d" stroke-width="2"/>
	<line x1="132" y1="355" x2="160" y2="355" stroke="#d6604d" stroke-width="1"/>
	<text x="139" y="347.7" fill="#000000" font-family="Verdana" font-size="12">In</text>
</g>

<!-- Association Report -->
<line x1="146" y1="77" x2="43" y2="77" stroke="#d6604d" stroke-width="2"/>
<text x="76" y="94.0" fill="#4d4d4d" font-family="Verdana" font-size="12">0,N</text>
<line x1="43" y1="195" x2="43" y2="77" stroke="#d6604d" stroke-width="2"/>
<text x="48.0" y="162" fill="#4d4d4d" font-family="Verdana" font-size="12">1,1</text>
<g id="association-Report">
	<path d="M 57 52 a 14 14 90 0 1 14 14 V 77 h -56 V 66 a 14 14 90 0 1 14 -14" fill="#f4a582" stroke="#f4a582" stroke-width="0"/>
	<path d="M 71 77.0 v 11 a 14 14 90 0 1 -14 14 H 29 a 14 14 90 0 1 -14 -14 V 77.0 H 56" fill="#fddbc7" stroke="#fddbc7" stroke-width="0"/>
	<rect x="15" y="52" width="56" height="50" fill="none" rx="14" stroke="#d6604d" stroke-width="2"/>
	<line x1="15" y1="77" x2="71" y2="77" stroke="#d6604d" stroke-width="1"/>
	<text x="22" y="69.7" fill="#000000" font-family="Verdana" font-size="12">Report</text>
</g>

<!-- Association Producted at -->
<line x1="499" y1="515" x2="386" y2="515" stroke="#d6604d" stroke-width="2"/>
<text x="437" y="532.0" fill="#4d4d4d" font-family="Verdana" font-size="12">0,N</text>
<line x1="254" y1="355" x2="386" y2="515" stroke="#d6604d" stroke-width="2"/>
<text x="313" y="418.571028875" fill="#4d4d4d" font-family="Verdana" font-size="12">1,N</text>
<g id="association-Producted at">
	<path d="M 418 490 a 14 14 90 0 1 14 14 V 515 h -92 V 504 a 14 14 90 0 1 14 -14" fill="#f4a582" stroke="#f4a582" stroke-width="0"/>
	<path d="M 432 515.0 v 11 a 14 14 90 0 1 -14 14 H 354 a 14 14 90 0 1 -14 -14 V 515.0 H 92" fill="#fddbc7" stroke="#fddbc7" stroke-width="0"/>
	<rect x="340" y="490" width="92" height="50" fill="none" rx="14" stroke="#d6604d" stroke-width="2"/>
	<line x1="340" y1="515" x2="432" y2="515" stroke="#d6604d" stroke-width="1"/>
	<text x="347" y="507.7" fill="#000000" font-family="Verdana" font-size="12">Producted at</text>
</g>

<!-- Association Has -->
<line x1="254" y1="355" x2="254" y2="515" stroke="#d6604d" stroke-width="2"/>
<text x="227.0" y="482" fill="#4d4d4d" font-family="Verdana" font-size="12">0,N</text>
<line x1="146" y1="515" x2="254" y2="515" stroke="#d6604d" stroke-width="2"/>
<text x="190" y="532.0" fill="#4d4d4d" font-family="Verdana" font-size="12">0,N</text>
<g id="association-Has">
	<path d="M 259 490 a 14 14 90 0 1 14 14 V 515 h -38 V 504 a 14 14 90 0 1 14 -14" fill="#f4a582" stroke="#f4a582" stroke-width="0"/>
	<path d="M 273 515.0 v 11 a 14 14 90 0 1 -14 14 H 249 a 14 14 90 0 1 -14 -14 V 515.0 H 38" fill="#fddbc7" stroke="#fddbc7" stroke-width="0"/>
	<rect x="235" y="490" width="38" height="50" fill="none" rx="14" stroke="#d6604d" stroke-width="2"/>
	<line x1="235" y1="515" x2="273" y2="515" stroke="#d6604d" stroke-width="1"/>
	<text x="242" y="507.7" fill="#000000" font-family="Verdana" font-size="12">Has</text>
</g>

<!-- Entity LANGUAGE -->
<g id="entity-LANGUAGE">
	<g id="frame-LANGUAGE">
		<rect x="107" y="490" width="78" height="25" fill="#bababa" stroke="#bababa" stroke-width="0"/>
		<rect x="107" y="515.0" width="78" height="25" fill="#e0e0e0" stroke="#e0e0e0" stroke-width="0"/>
		<rect x="107" y="490" width="78" height="50" fill="none" stroke="#878787" stroke-width="2"/>
		<line x1="107" y1="515" x2="185" y2="515" stroke="#878787" stroke-width="1"/>
	</g>
	<text x="112" y="507.7" fill="#000000" font-family="Verdana" font-size="12">LANGUAGE</text>
	<text x="112" y="532.8" fill="#000000" font-family="Verdana" font-size="12">name</text>
</g>

<!-- Entity COUNTRY -->
<g id="entity-COUNTRY">
	<g id="frame-COUNTRY">
		<rect x="464" y="490" width="70" height="25" fill="#bababa" stroke="#bababa" stroke-width="0"/>
		<rect x="464" y="515.0" width="70" height="25" fill="#e0e0e0" stroke="#e0e0e0" stroke-width="0"/>
		<rect x="464" y="490" width="70" height="50" fill="none" stroke="#878787" stroke-width="2"/>
		<line x1="464" y1="515" x2="534" y2="515" stroke="#878787" stroke-width="1"/>
	</g>
	<text x="469" y="507.7" fill="#000000" font-family="Verdana" font-size="12">COUNTRY</text>
	<text x="469" y="532.8" fill="#000000" font-family="Verdana" font-size="12">name</text>
</g>

<!-- Entity SEASON -->
<g id="entity-SEASON">
	<g id="frame-SEASON">
		<rect x="12" y="321" width="62" height="25" fill="#bababa" stroke="#bababa" stroke-width="0"/>
		<rect x="12" y="346.0" width="62" height="43" fill="#e0e0e0" stroke="#e0e0e0" stroke-width="0"/>
		<rect x="12" y="321" width="62" height="68" fill="none" stroke="#878787" stroke-width="2"/>
		<line x1="12" y1="346" x2="74" y2="346" stroke="#878787" stroke-width="1"/>
	</g>
	<text x="17" y="338.7" fill="#000000" font-family="Verdana" font-size="12">SEASON</text>
	<text x="17" y="363.8" fill="#000000" font-family="Verdana" font-size="12">number</text>
	<text x="17" y="380.8" fill="#000000" font-family="Verdana" font-size="12">year</text>
</g>

<!-- Entity REVIEW -->
<g id="entity-REVIEW">
	<g id="frame-REVIEW">
		<rect x="103" y="18" width="86" height="25" fill="#bababa" stroke="#bababa" stroke-width="0"/>
		<rect x="103" y="43.0" width="86" height="93" fill="#e0e0e0" stroke="#e0e0e0" stroke-width="0"/>
		<rect x="103" y="18" width="86" height="118" fill="none" stroke="#878787" stroke-width="2"/>
		<line x1="103" y1="43" x2="189" y2="43" stroke="#878787" stroke-width="1"/>
	</g>
	<text x="121" y="35.7" fill="#000000" font-family="Verdana" font-size="12">REVIEW</text>
	<text x="108" y="60.7" fill="#000000" font-family="Verdana" font-size="12">viewed</text>
	<text x="108" y="77.8" fill="#000000" font-family="Verdana" font-size="12">bookmarked</text>
	<text x="108" y="94.8" fill="#000000" font-family="Verdana" font-size="12">liked</text>
	<text x="108" y="111.8" fill="#000000" font-family="Verdana" font-size="12">note</text>
	<text x="108" y="128.8" fill="#000000" font-family="Verdana" font-size="12">comment</text>
</g>

<!-- Entity USER -->
<g id="entity-USER">
	<g id="frame-USER">
		<rect x="349" y="9" width="74" height="25" fill="#bababa" stroke="#bababa" stroke-width="0"/>
		<rect x="349" y="34.0" width="74" height="111" fill="#e0e0e0" stroke="#e0e0e0" stroke-width="0"/>
		<rect x="349" y="9" width="74" height="136" fill="none" stroke="#878787" stroke-width="2"/>
		<line x1="349" y1="34" x2="423" y2="34" stroke="#878787" stroke-width="1"/>
	</g>
	<text x="369" y="26.7" fill="#000000" font-family="Verdana" font-size="12">USER</text>
	<text x="354" y="51.7" fill="#000000" font-family="Verdana" font-size="12">pseudo</text>
	<text x="354" y="68.7" fill="#000000" font-family="Verdana" font-size="12">mail</text>
	<text x="354" y="85.8" fill="#000000" font-family="Verdana" font-size="12">password</text>
	<text x="354" y="102.8" fill="#000000" font-family="Verdana" font-size="12">avatar_url</text>
	<text x="354" y="119.8" fill="#000000" font-family="Verdana" font-size="12">role</text>
	<text x="354" y="136.8" fill="#000000" font-family="Verdana" font-size="12">sub_mail</text>
</g>

<!-- Entity MOVIE -->
<g id="entity-MOVIE">
	<g id="frame-MOVIE">
		<rect x="200" y="245" width="108" height="25" fill="#bababa" stroke="#bababa" stroke-width="0"/>
		<rect x="200" y="270.0" width="108" height="195" fill="#e0e0e0" stroke="#e0e0e0" stroke-width="0"/>
		<rect x="200" y="245" width="108" height="220" fill="none" stroke="#878787" stroke-width="2"/>
		<line x1="200" y1="270" x2="308" y2="270" stroke="#878787" stroke-width="1"/>
	</g>
	<text x="233" y="262.7" fill="#000000" font-family="Verdana" font-size="12">MOVIE</text>
	<text x="205" y="287.7" fill="#000000" font-family="Verdana" font-size="12">french_title</text>
	<text x="205" y="304.7" fill="#000000" font-family="Verdana" font-size="12">original_title</text>
	<text x="205" y="321.7" fill="#000000" font-family="Verdana" font-size="12">poster_url</text>
	<text x="205" y="338.7" fill="#000000" font-family="Verdana" font-size="12">directors</text>
	<text x="205" y="355.8" fill="#000000" font-family="Verdana" font-size="12">release date</text>
	<text x="205" y="372.8" fill="#000000" font-family="Verdana" font-size="12">duration</text>
	<text x="205" y="389.8" fill="#000000" font-family="Verdana" font-size="12">casting</text>
	<text x="205" y="406.8" fill="#000000" font-family="Verdana" font-size="12">presentation</text>
	<text x="205" y="423.8" fill="#000000" font-family="Verdana" font-size="12">is_published</text>
	<text x="205" y="440.8" fill="#000000" font-family="Verdana" font-size="12">publishing_date</text>
</g>

<!-- Entity GENRE -->
<g id="entity-GENRE">
	<g id="frame-GENRE">
		<rect x="472" y="330" width="54" height="25" fill="#bababa" stroke="#bababa" stroke-width="0"/>
		<rect x="472" y="355.0" width="54" height="25" fill="#e0e0e0" stroke="#e0e0e0" stroke-width="0"/>
		<rect x="472" y="330" width="54" height="50" fill="none" stroke="#878787" stroke-width="2"/>
		<line x1="472" y1="355" x2="526" y2="355" stroke="#878787" stroke-width="1"/>
	</g>
	<text x="477" y="347.7" fill="#000000" font-family="Verdana" font-size="12">GENRE</text>
	<text x="477" y="372.8" fill="#000000" font-family="Verdana" font-size="12">name</text>
</g>

<!-- Entity JOURNAL -->
<g id="entity-JOURNAL">
	<g id="frame-JOURNAL">
		<rect x="9" y="170" width="68" height="25" fill="#bababa" stroke="#bababa" stroke-width="0"/>
		<rect x="9" y="195.0" width="68" height="25" fill="#e0e0e0" stroke="#e0e0e0" stroke-width="0"/>
		<rect x="9" y="170" width="68" height="50" fill="none" stroke="#878787" stroke-width="2"/>
		<line x1="9" y1="195" x2="77" y2="195" stroke="#878787" stroke-width="1"/>
	</g>
	<text x="14" y="187.7" fill="#000000" font-family="Verdana" font-size="12">JOURNAL</text>
	<text x="14" y="212.8" fill="#000000" font-family="Verdana" font-size="12">log</text>
</g>
</svg>